<?xml version="1.0" encoding="UTF-8"?>
<svg version="1.1" xmlns="http://www.w3.org/2000/svg" width="866" height="302">
<path d="M0 0 C5.54552656 4.2465744 9.64208021 8.21610172 13.66796875 13.91015625 C14.14935303 14.57329834 14.6307373 15.23644043 15.12670898 15.91967773 C17.66283738 19.43714586 20.00408241 22.99932639 22.23046875 26.72265625 C26.1595511 32.72384831 32.49595236 36.09506299 39.29296875 38.03515625 C53.15149004 40.27040162 63.49165737 35.39297266 75.35546875 28.53515625 C76.55202865 27.85642036 77.7493018 27.17894042 78.94726562 26.50268555 C84.01372955 23.63657872 89.05490022 20.726804 94.09375 17.8125 C105.90020727 11.00417785 116.09811318 5.76197455 130.16796875 7.66015625 C142.27317258 11.70118441 149.79068138 23.96207492 157.16796875 33.66015625 C157.79928711 34.48362549 157.79928711 34.48362549 158.44335938 35.32373047 C165.16796875 44.126016 165.16796875 44.126016 165.16796875 47.66015625 C164.06582031 48.26601562 162.96367188 48.871875 161.828125 49.49609375 C154.26210999 53.66911071 146.7240633 57.87561842 139.29296875 62.28515625 C131.5688496 66.86726083 123.78096854 71.33486945 115.98046875 75.78515625 C115.39904114 76.11686829 114.81761353 76.44858032 114.21856689 76.79034424 C111.3628582 78.41919472 108.50616581 80.04621525 105.64697266 81.66894531 C103.22984237 83.0451868 100.82905475 84.44622553 98.43505859 85.86230469 C97.81708908 86.22444061 97.19911957 86.58657654 96.56242371 86.95968628 C94.84808637 87.96522889 93.13812579 88.97822274 91.4284668 89.99169922 C84.2838389 93.64773718 76.89978463 94.90711437 69.03125 93.1953125 C66.95716927 92.5066688 65.10374766 91.67338472 63.16796875 90.66015625 C62.54535156 90.33917969 61.92273438 90.01820312 61.28125 89.6875 C55.39397656 85.97362162 52.08252268 80.45137373 48.30981445 74.77124023 C42.2242561 65.63500759 35.7823784 58.15162987 26.16796875 52.66015625 C25.54535156 52.28246094 24.92273438 51.90476563 24.28125 51.515625 C9.78403519 43.4008318 -5.53011135 44.85422808 -20.83056641 49.09228516 C-21.4910498 49.27968262 -22.1515332 49.46708008 -22.83203125 49.66015625 C-23.86714844 49.95277344 -24.90226562 50.24539062 -25.96875 50.546875 C-37.10118558 54.30723041 -47.00290416 61.01007574 -57.03369141 67.00195312 C-60.60043662 69.11548771 -64.206178 71.15029291 -67.83203125 73.16015625 C-72.49638792 75.75339701 -77.12102688 78.40610035 -81.72265625 81.109375 C-82.77195312 81.72554688 -83.82125 82.34171875 -84.90234375 82.9765625 C-86.95647864 84.18532247 -89.00870394 85.39733611 -91.05859375 86.61328125 C-113.18118331 99.63180245 -113.18118331 99.63180245 -127.83203125 97.66015625 C-138.05296685 94.82849863 -143.91898619 86.89888414 -149.26953125 78.22265625 C-157.7219475 64.58049458 -169.4010623 55.10458719 -185.1015625 51.078125 C-214.10272236 46.6387486 -237.68641763 61.52040765 -261.60400391 75.75146484 C-267.23567261 79.08139874 -272.91036637 82.3365204 -278.58203125 85.59765625 C-280.66036052 86.79391601 -282.73849261 87.99051843 -284.81640625 89.1875 C-286.300802 90.03985229 -286.300802 90.03985229 -287.81518555 90.90942383 C-289.90138463 92.12008448 -291.97783732 93.34763989 -294.04614258 94.58862305 C-295.0905249 95.21293213 -296.13490723 95.83724121 -297.2109375 96.48046875 C-298.14236572 97.0439502 -299.07379395 97.60743164 -300.03344727 98.18798828 C-310.11432861 103.49093816 -321.23786619 104.0609089 -332.0078125 100.81640625 C-345.71188122 95.20588849 -355.06089616 82.02414421 -363.83203125 70.66015625 C-364.40050781 69.94730469 -364.96898437 69.23445313 -365.5546875 68.5 C-366.83203125 66.66015625 -366.83203125 66.66015625 -366.83203125 64.66015625 C-366.20039063 64.30937012 -365.56875 63.95858398 -364.91796875 63.59716797 C-353.15774601 57.05829773 -341.43557305 50.47387518 -329.83203125 43.66015625 C-320.73596845 38.32044982 -311.56991998 33.12255104 -302.35229492 27.99584961 C-295.70811279 24.29310498 -289.11028639 20.51873809 -282.53540039 16.69433594 C-237.42611612 -9.53523997 -237.42611612 -9.53523997 -211.89453125 -3.15234375 C-196.20054452 1.93063404 -185.71979708 13.60362311 -177.33203125 27.34765625 C-172.24508985 35.42359869 -166.24624322 40.37714572 -156.83203125 42.66015625 C-143.6253223 44.16161504 -133.55397738 40.0537525 -122.39453125 33.41015625 C-120.56277889 32.34196953 -118.73073144 31.27428873 -116.8984375 30.20703125 C-115.43881592 29.35141602 -115.43881592 29.35141602 -113.94970703 28.47851562 C-110.63812844 26.54706399 -107.31403696 24.63830764 -103.984375 22.73828125 C-103.39967438 22.40462051 -102.81497375 22.07095978 -102.21255493 21.72718811 C-99.818785 20.36191861 -97.42443768 18.99766378 -95.0300293 17.6335144 C-88.94802944 14.16762942 -82.87223394 10.69366042 -76.8359375 7.1484375 C-53.19419758 -6.69032596 -24.88353715 -17.27889717 0 0 Z " fill="#FCD31A" transform="translate(700.83203125,25.33984375)"/>
<path d="M0 0 C5.45600938 3.9082053 9.34714083 8.40655939 13 14 C13.53367187 13.34773438 14.06734375 12.69546875 14.6171875 12.0234375 C21.75006774 3.65649493 29.63280794 -3.04983724 41.00732422 -4.20361328 C43.13461271 -4.30305665 45.24549228 -4.32925835 47.375 -4.3125 C48.12450928 -4.30686035 48.87401855 -4.3012207 49.64624023 -4.29541016 C59.11077584 -4.08780497 66.00921424 -1.51783619 73 5 C85.00747 17.89485808 85.30751606 34.62541312 85.1953125 51.26171875 C85.19157431 52.90509365 85.18873115 54.54847081 85.18673706 56.19184875 C85.17916401 60.48092999 85.15957125 64.76987203 85.1373291 69.05889893 C85.11673298 73.4500541 85.10770614 77.84123214 85.09765625 82.23242188 C85.07631825 90.82168504 85.04118908 99.41080907 85 108 C75.76 108 66.52 108 57 108 C56.97812622 104.99652466 56.97812622 104.99652466 56.95581055 101.93237305 C56.90522389 95.27864332 56.8385882 88.62514174 56.76428509 81.97163677 C56.71976741 77.94196808 56.68047174 73.91239617 56.65356445 69.88256836 C56.627344 65.98551716 56.58681326 62.08884219 56.53681374 58.19202614 C56.52027055 56.71351657 56.50867885 55.23494211 56.50238609 53.75635338 C56.45398827 38.46127014 56.45398827 38.46127014 50 25 C50 24.34 50 23.68 50 23 C43.79377683 20.40306974 38.60276523 19.168667 32 21 C25.35378362 24.51120866 21.89257048 29.09005258 19.63754272 36.1088562 C18.27439065 42.29051042 18.5145119 48.66962833 18.48828125 54.97265625 C18.47140884 56.50680454 18.4532552 58.04093922 18.43388367 59.57505798 C18.38665519 63.58458197 18.35667121 67.59405076 18.33044434 71.60375977 C18.30050066 75.7066538 18.25401828 79.80935814 18.20898438 83.91210938 C18.12326062 91.94132809 18.0573104 99.97052816 18 108 C8.76 108 -0.48 108 -10 108 C-10.01458252 105.89633057 -10.02916504 103.79266113 -10.04418945 101.62524414 C-10.09469199 94.64820364 -10.16131403 87.67138265 -10.23571491 80.69455814 C-10.28030292 76.46753435 -10.31958397 72.24060436 -10.34643555 68.01342773 C-10.37258472 63.9283612 -10.41306763 59.84365794 -10.46318626 55.75881767 C-10.47977691 54.20608502 -10.49133951 52.65328964 -10.49761391 51.10048103 C-10.50359623 37.07032857 -10.50359623 37.07032857 -16.25 24.5625 C-20.57226098 20.53493863 -24.12628815 19.97025854 -29.9375 20.0625 C-35.47853428 21.02895947 -40.00330282 23.36971491 -43.44120789 27.89852905 C-47.91326514 35.92066199 -47.73302634 43.81930298 -47.70703125 52.7265625 C-47.72016901 54.32654688 -47.73547955 55.92651475 -47.75285339 57.52645874 C-47.79247409 61.70543278 -47.80287888 65.8839707 -47.80688477 70.06311035 C-47.81625983 74.34038329 -47.85370036 78.61740457 -47.88867188 82.89453125 C-47.95301407 91.26306903 -47.98384652 99.63123034 -48 108 C-57.57 108 -67.14 108 -77 108 C-77 71.7 -77 35.4 -77 -2 C-69.08 -2 -61.16 -2 -53 -2 C-51.12175109 -0.12175109 -51.60897603 3.03935276 -51.4375 5.5625 C-51.31181641 7.35880859 -51.31181641 7.35880859 -51.18359375 9.19140625 C-51.12300781 10.11824219 -51.06242187 11.04507813 -51 12 C-50.61070313 11.49210938 -50.22140625 10.98421875 -49.8203125 10.4609375 C-38.3683989 -3.62966587 -16.31118469 -10.12007809 0 0 Z " fill="#1A3664" transform="translate(77,159)"/>
<path d="M0 0 C9.24 0 18.48 0 28 0 C28.33 50.82 28.66 101.64 29 154 C20.42 154 11.84 154 3 154 C2.67 149.71 2.34 145.42 2 141 C0.948125 141.9075 -0.10375 142.815 -1.1875 143.75 C-2.15623047 144.57371094 -2.15623047 144.57371094 -3.14453125 145.4140625 C-4.57044519 146.63284368 -5.97706989 147.87422043 -7.375 149.125 C-18.14261277 156.81615198 -30.23904355 157.002442 -43 156 C-49.41135911 154.63873233 -54.8095146 152.01082963 -60 148 C-60.55042969 147.60425781 -61.10085938 147.20851563 -61.66796875 146.80078125 C-70.3075315 140.14469427 -74.98076174 130.2596864 -78 120 C-78.53753906 118.21916016 -78.53753906 118.21916016 -79.0859375 116.40234375 C-83.60968311 97.85127698 -79.71190848 78.07358496 -70 62 C-62.36368606 51.66031945 -52.74128423 44.5085732 -40 42 C-26.21130211 40.63406402 -14.03220509 41.97821953 -3 51 C-2.67 51.66 -2.34 52.32 -2 53 C-1.98969254 52.35076065 -1.97938507 51.7015213 -1.96876526 51.03260803 C-1.86093864 44.30100948 -1.74632219 37.5695513 -1.62768555 30.83813477 C-1.58425994 28.32286504 -1.54259071 25.80756437 -1.50268555 23.29223633 C-1.44516707 19.68561456 -1.38142033 16.07914969 -1.31640625 12.47265625 C-1.29969376 11.34038101 -1.28298126 10.20810577 -1.26576233 9.04151917 C-1.24581711 8.00051559 -1.22587189 6.95951202 -1.20532227 5.88696289 C-1.18977798 4.96540909 -1.1742337 4.04385529 -1.15821838 3.09437561 C-1 1 -1 1 0 0 Z M-43 72 C-50.60284686 82.9698219 -52.377861 94.94461117 -51 108 C-49.37775359 115.84957941 -46.56964459 123.50663896 -40.04296875 128.49609375 C-33.26658375 132.93406018 -27.07209862 133.91947084 -19 133 C-11.68884139 130.76167676 -6.61262504 126.74926232 -3 120 C-0.47674553 113.54711581 -0.59218069 107.243847 -0.57446289 100.42480469 C-0.56260458 98.26901231 -0.51339511 96.11612405 -0.46289062 93.9609375 C-0.36604267 85.780092 -0.95636847 78.80745959 -6 72 C-11.36920091 66.6860267 -16.82633438 64.24121592 -24.4296875 63.88671875 C-31.65556093 64.2051843 -38.04195817 66.69604828 -43 72 Z " fill="#153260" transform="translate(475,113)"/>
<path d="M0 0 C9.73140118 6.92198797 14.63608993 16.4376069 16.8918457 28.06040955 C17.79051486 34.8745241 17.55329251 41.77229317 17.5078125 48.6328125 C17.50407544 50.30003692 17.50123175 51.96726355 17.49923706 53.63449097 C17.49165512 57.99098941 17.47205433 62.34735133 17.4498291 66.70379639 C17.42925251 71.16188715 17.42021025 75.62000029 17.41015625 80.078125 C17.38880249 88.80215251 17.35366568 97.52604346 17.3125 106.25 C7.7425 106.25 -1.8275 106.25 -11.6875 106.25 C-11.6968457 104.15156738 -11.70619141 102.05313477 -11.71582031 99.89111328 C-11.74972129 92.92602337 -11.8053423 85.96122565 -11.87140274 78.99637032 C-11.91076379 74.77718773 -11.94300756 70.5582103 -11.95849609 66.33886719 C-11.97373826 62.26020409 -12.00831568 58.18210542 -12.05580902 54.10369492 C-12.07054545 52.5545838 -12.07853653 51.00539206 -12.07938385 49.45621109 C-12.0881526 41.45649576 -12.27037309 34.41789557 -15.83392334 27.05245972 C-16.6875 25.25 -16.6875 25.25 -16.6875 23.25 C-24.2031215 19.17903835 -30.23701218 17.11260693 -38.6875 19.25 C-42.0707553 21.1146306 -42.0707553 21.1146306 -44.6875 23.25 C-45.6775 23.58 -46.6675 23.91 -47.6875 24.25 C-48.7900173 26.41621868 -48.7900173 26.41621868 -49.6875 29.25 C-50.1925708 30.30316406 -50.6976416 31.35632813 -51.21801758 32.44140625 C-53.68131787 39.03715596 -53.17042339 46.18077988 -53.19921875 53.125 C-53.21608634 54.66057757 -53.23423935 56.1961415 -53.25361633 57.73168945 C-53.30089709 61.74944803 -53.33084755 65.76715131 -53.35705566 69.78509521 C-53.38697259 73.89460159 -53.43346434 78.00391785 -53.47851562 82.11328125 C-53.56429906 90.15877598 -53.63022025 98.2042518 -53.6875 106.25 C-63.2575 106.25 -72.8275 106.25 -82.6875 106.25 C-83.0175 69.95 -83.3475 33.65 -83.6875 -3.75 C-75.1075 -3.75 -66.5275 -3.75 -57.6875 -3.75 C-57.0275 0.87 -56.3675 5.49 -55.6875 10.25 C-54.718125 9.033125 -53.74875 7.81625 -52.75 6.5625 C-48.89670364 2.17423896 -44.97871977 -0.36624229 -39.6875 -2.75 C-39.03523438 -3.0696875 -38.38296875 -3.389375 -37.7109375 -3.71875 C-25.64089017 -8.75181993 -10.83683852 -6.69913654 0 0 Z " fill="#1A3663" transform="translate(366.6875,160.75)"/>
<path d="M0 0 C1.02544922 -0.020625 2.05089844 -0.04125 3.10742188 -0.0625 C15.23244268 -0.12377616 26.28040028 2.74328704 35.3515625 11.13671875 C44.53164465 21.07855239 46.58693669 31.78573677 46.69140625 44.96484375 C46.70840073 46.09281876 46.7253952 47.22079376 46.74290466 48.38294983 C46.79575355 51.98440972 46.83606471 55.58586519 46.875 59.1875 C46.93419782 63.88418396 46.99889521 68.58077234 47.06640625 73.27734375 C47.09028915 75.00493423 47.09028915 75.00493423 47.11465454 76.76742554 C47.29736996 88.60599568 47.79224131 100.42163918 48.3125 112.25 C39.7325 112.25 31.1525 112.25 22.3125 112.25 C21.3443352 108.3773408 21.23627142 105.21388638 21.3125 101.25 C20.6525 101.25 19.9925 101.25 19.3125 101.25 C18.8175 102.735 18.8175 102.735 18.3125 104.25 C7.25221904 113.89559386 -5.37159074 115.35996253 -19.46337891 114.47314453 C-27.62329778 113.65446551 -34.48308594 109.52427219 -39.6875 103.25 C-45.74013883 93.18864178 -48.17977532 84.65917308 -46.109375 72.9921875 C-43.4456281 62.74886989 -37.4223679 55.04690937 -28.546875 49.265625 C-13.87672252 41.2525165 1.9820414 40.05862744 18.3125 40.25 C17.85955135 38.49859857 17.39991252 36.74892656 16.9375 35 C16.68226563 34.02546875 16.42703125 33.0509375 16.1640625 32.046875 C15.40967153 29.56915051 14.64699379 27.46404651 13.3125 25.25 C1.9233351 19.22044211 -9.78842211 21.00356208 -21.6875 24.25 C-24.17524164 25.21938536 -26.54146793 26.26722646 -28.91796875 27.48046875 C-30.6875 28.25 -30.6875 28.25 -33.6875 28.25 C-34.52607688 25.64741676 -35.35853344 23.04314353 -36.1875 20.4375 C-36.42597656 19.69951172 -36.66445312 18.96152344 -36.91015625 18.20117188 C-37.88690136 15.11744804 -38.6875 12.50504191 -38.6875 9.25 C-26.34457735 2.47349345 -13.93274728 0.06876125 0 0 Z M-15.05859375 68.77734375 C-18.2866212 73.52444294 -18.60722504 78.67646626 -17.6875 84.25 C-15.71027707 88.13383075 -13.60072591 91.24050561 -9.6875 93.25 C-3.22302716 94.93128427 2.38777209 94.32750884 8.3125 91.25 C13.02227775 87.96448494 16.78194568 84.93817948 18.3125 79.25 C18.54133275 75.80752736 18.50085573 72.38551383 18.4375 68.9375 C18.42847656 68.00615234 18.41945312 67.07480469 18.41015625 66.11523438 C18.38668263 63.8265564 18.35384729 61.53841328 18.3125 59.25 C6.71899505 58.74284985 -6.7930453 59.56985245 -15.05859375 68.77734375 Z " fill="#193663" transform="translate(219.6875,154.75)"/>
<path d="M0 0 C8.25 0 16.5 0 25 0 C25.495 7.92 25.495 7.92 26 16 C29.80259936 12.38596245 29.80259936 12.38596245 31.875 9.5 C36.88115088 3.61041072 42.67515437 1.68387256 50 0 C54.29 0 58.58 0 63 0 C63 8.58 63 17.16 63 26 C60.73125 25.896875 58.4625 25.79375 56.125 25.6875 C49.10420428 25.59316923 43.58429593 26.54300119 38 31 C29.13826509 40.23174472 29.69859353 52.94773438 29.5859375 64.98046875 C29.56657135 66.27447098 29.5472052 67.56847321 29.5272522 68.90168762 C29.47645177 72.30287839 29.43655156 75.70410822 29.39910889 79.10546875 C29.35873786 82.59189051 29.30789871 86.07815963 29.2578125 89.56445312 C29.16070356 96.37624042 29.08076724 103.18792135 29 110 C19.76 110 10.52 110 1 110 C0.67 73.7 0.34 37.4 0 0 Z " fill="#153260" transform="translate(568,157)"/>
<path d="M0 0 C9.57 0 19.14 0 29 0 C29 36.3 29 72.6 29 110 C19.43 110 9.86 110 0 110 C0 73.7 0 37.4 0 0 Z " fill="#1A3663" transform="translate(642,157)"/>
<path d="M0 0 C9.57 0 19.14 0 29 0 C29 36.3 29 72.6 29 110 C19.43 110 9.86 110 0 110 C0 73.7 0 37.4 0 0 Z " fill="#193663" transform="translate(521,157)"/>
<path d="M0 0 C9.24 0 18.48 0 28 0 C28 45.54 28 91.08 28 138 C27.67 138 27.34 138 27 138 C27 93.12 27 48.24 27 2 C18.42 2 9.84 2 1 2 C1 20.15 1 38.3 1 57 C0.34 57 -0.32 57 -1 57 C-2.01764065 53.94707804 -2.09565536 51.99827059 -2.03759766 48.81005859 C-2.02072906 47.75241302 -2.00386047 46.69476746 -1.98648071 45.60507202 C-1.9625827 44.46438263 -1.93868469 43.32369324 -1.9140625 42.1484375 C-1.89282318 40.97866364 -1.87158386 39.80888977 -1.84970093 38.60366821 C-1.80342747 36.13058586 -1.75449829 33.65755199 -1.703125 31.18457031 C-1.62517568 27.38356682 -1.55809908 23.58247917 -1.4921875 19.78125 C-1.44596452 17.38279985 -1.39911113 14.98436174 -1.3515625 12.5859375 C-1.33171295 11.44119965 -1.3118634 10.29646179 -1.29141235 9.11703491 C-1.26823944 8.06569366 -1.24506653 7.01435242 -1.22119141 5.93115234 C-1.20263092 5.00088226 -1.18407043 4.07061218 -1.16494751 3.1121521 C-1 1 -1 1 0 0 Z " fill="#8292AB" transform="translate(475,113)"/>
<path d="M0 0 C8.25 0 16.5 0 25 0 C25.4375 7.75 25.4375 7.75 25.56811523 10.17089844 C25.77051551 13.56848441 26.10379549 16.7213586 27 20 C26.01 20.33 25.02 20.66 24 21 C24 14.4 24 7.8 24 1 C16.41 1 8.82 1 1 1 C1 6.61 1 12.22 1 18 C0.67 18 0.34 18 0 18 C0 12.06 0 6.12 0 0 Z " fill="#C8CFD9" transform="translate(568,157)"/>
<path d="M0 0 C0.66 0 1.32 0 2 0 C0.52278578 3.45201639 -1.43794001 5.64961936 -4.125 8.25 C-4.84945312 8.95640625 -5.57390625 9.6628125 -6.3203125 10.390625 C-6.87460938 10.92171875 -7.42890625 11.4528125 -8 12 C-8.66 11.67 -9.32 11.34 -10 11 C-8.38150935 9.16053461 -6.75581169 7.32848583 -5.125 5.5 C-4.66480469 4.97535156 -4.20460938 4.45070312 -3.73046875 3.91015625 C-2.52827924 2.56858245 -1.26754054 1.28000815 0 0 Z " fill="#72839F" transform="translate(99,163)"/>
<path d="M0 0 C-1.59092052 4.13639336 -4.60474918 7.23213248 -8 10 C-8.66 10 -9.32 10 -10 10 C-8.50006099 6.10015857 -4.53875449 0 0 0 Z " fill="#6B7D9A" transform="translate(417,164)"/>
<path d="M0 0 C0.33 0 0.66 0 1 0 C1.06058594 0.74765625 1.12117187 1.4953125 1.18359375 2.265625 C1.26738281 3.25046875 1.35117187 4.2353125 1.4375 5.25 C1.51871094 6.22453125 1.59992187 7.1990625 1.68359375 8.203125 C1.95074584 10.56461753 2.35371968 12.71901065 3 15 C2.01 15.33 1.02 15.66 0 16 C0 10.72 0 5.44 0 0 Z " fill="#7A8BA5" transform="translate(592,162)"/>
<path d="M0 0 C-1.44077046 3.36179774 -3.24750021 5.59156268 -6 8 C-6.66 8 -7.32 8 -8 8 C-6.48291727 4.46014029 -4.24676932 0 0 0 Z " fill="#7384A0" transform="translate(320,163)"/>
</svg>
